<?xml version="1.0" standalone="no"?><!DOCTYPE svg PUBLIC "-//W3C//DTD SVG 1.1//EN" "http://www.w3.org/Graphics/SVG/1.1/DTD/svg11.dtd"><svg t="1577186852439" class="icon" viewBox="0 0 1024 1024" version="1.1" xmlns="http://www.w3.org/2000/svg" p-id="8264" xmlns:xlink="http://www.w3.org/1999/xlink" width="200" height="200"><defs><style type="text/css"></style></defs><path d="M301.568 536.32c-7.168 0-14.336-2.816-19.968-8.192-11.008-11.008-11.008-28.928 0-39.936L702.464 67.584c11.008-11.008 28.928-11.008 39.936 0 11.008 11.008 11.008 28.928 0 39.936L321.536 528.128c-5.376 5.376-12.8 8.192-19.968 8.192z" p-id="8265" fill="#ffffff"></path><path d="M722.432 964.864c-7.168 0-14.336-2.816-19.968-8.192L281.6 535.808c-11.008-11.008-11.008-28.928 0-39.936 11.008-11.008 28.928-11.008 39.936 0L742.4 916.736c11.008 11.008 11.008 28.928 0 39.936-5.632 5.376-12.8 8.192-19.968 8.192z" p-id="8266" fill="#ffffff"></path></svg>