<?xml version="1.0" standalone="no"?><!DOCTYPE svg PUBLIC "-//W3C//DTD SVG 1.1//EN" "http://www.w3.org/Graphics/SVG/1.1/DTD/svg11.dtd"><svg t="1576853929304" class="icon" viewBox="0 0 1024 1024" version="1.1" xmlns="http://www.w3.org/2000/svg" p-id="2937" xmlns:xlink="http://www.w3.org/1999/xlink" width="200" height="200"><defs><style type="text/css"></style></defs><path d="M854.258526 943.157895h-668.294737a92.025263 92.025263 0 0 1-93.696-93.696v-471.578948a92.025263 92.025263 0 0 1 93.642106-93.722947h668.294737a92.025263 92.025263 0 0 1 93.696 93.696v471.578947A93.965474 93.965474 0 0 1 854.258526 943.157895z m-668.294737-599.65979a29.642105 29.642105 0 0 0-31.232 31.232v471.578948a29.642105 29.642105 0 0 0 31.232 31.232h668.294737a29.642105 29.642105 0 0 0 31.232-31.232v-471.578948a29.642105 29.642105 0 0 0-31.232-31.232z" fill="#ff699c" p-id="2938"></path><path d="M423.289263 821.355789a199.895579 199.895579 0 1 1 199.895579-199.895578 201.296842 201.296842 0 0 1-199.895579 199.895578z m0-337.30021a137.431579 137.431579 0 1 0 137.431579 137.431579 138.644211 138.644211 0 0 0-137.431579-137.431579zM810.549895 521.539368h-93.696a31.232 31.232 0 1 1 0-62.464h93.696a31.232 31.232 0 0 1 0 62.464z" fill="#ff699c" p-id="2939"></path><path d="M220.267789 321.643789a23.390316 23.390316 0 0 1-15.602526-3.125894 30.72 30.72 0 0 1-9.377684-43.735579l31.232-49.960421A47.104 47.104 0 0 1 270.255158 196.715789h143.656421a48.963368 48.963368 0 0 1 43.735579 28.106106l31.232 49.960421a31.609263 31.609263 0 0 1-53.086316 34.357895l-28.106105-46.834527h-128.053895l-28.106105 46.834527a55.484632 55.484632 0 0 1-31.258948 12.503578z" fill="#ff699c" p-id="2940"></path></svg>