<?xml version="1.0" standalone="no"?><!DOCTYPE svg PUBLIC "-//W3C//DTD SVG 1.1//EN" "http://www.w3.org/Graphics/SVG/1.1/DTD/svg11.dtd"><svg t="1576854662623" class="icon" viewBox="0 0 1024 1024" version="1.1" xmlns="http://www.w3.org/2000/svg" p-id="7486" xmlns:xlink="http://www.w3.org/1999/xlink" width="200" height="200"><defs><style type="text/css"></style></defs><path d="M772.563946 296.40678c-39.380916 0-84.502579-27.996634-100.636025-47.311539l-43.714617-52.253084c-11.048637-13.175067-30.363542-28.9084-59.815317-28.9084L456.249767 167.933757c-30.219255 0-46.6249 12.32777-63.253626 32.234145l-41.427528 49.566906c-16.341177 19.47454-62.086034 46.671972-99.484805 46.671972-11.879562 0-21.473057-9.609869-21.473057-21.537526 0-11.879562 9.593496-21.521153 21.473057-21.521153 23.296589 0 57.560974-20.577664 66.514903-31.322379l41.427528-49.51881c19.682271-23.552415 46.512337-47.600111 96.222505-47.600111l112.14822 0c48.462758 0 78.922491 27.740808 92.78522 44.322461l42.578748 50.909483c10.264784 12.263301 43.74634 33.209356 68.800969 33.209356 11.879562 0 21.473057 9.641591 21.473057 21.521153C794.037003 286.797935 784.443507 296.40678 772.563946 296.40678L772.563946 296.40678zM834.346057 899.118781 189.630407 899.118781c-47.359634 0-85.925998-38.581714-85.925998-86.037539L103.704408 339.466482c0-47.50392 38.566364-86.117356 85.925998-86.117356l60.406788 0c11.879562 0 21.473057 9.641591 21.473057 21.521153 0 11.927657-9.593496 21.537526-21.473057 21.537526l-60.406788 0c-23.680329 0-42.947138 19.298532-42.947138 43.058678L146.683269 813.081243c0 23.712051 19.266809 43.010583 42.947138 43.010583L834.346057 856.091826c23.663956 0 42.97886-19.298532 42.97886-43.010583L877.324918 339.466482c0-23.760147-19.314904-43.058678-42.97886-43.058678l-60.647265 0c-11.879562 0-21.505803-9.609869-21.505803-21.537526 0-11.879562 9.625218-21.521153 21.505803-21.521153l60.647265 0c47.40773 0 85.957721 38.613436 85.957721 86.117356L920.303778 813.081243C920.303778 860.537068 881.753787 899.118781 834.346057 899.118781L834.346057 899.118781zM662.190139 576.233953c-11.879562 0-21.473057-9.609869-21.473057-21.48943 0-71.103408-57.768705-128.936581-128.72885-128.936581-70.943772 0-128.72885 57.833173-128.72885 128.936581 0 71.088058 57.785078 128.936581 128.72885 128.936581 24.38334 0 48.334845-7.14677 69.2809-20.658506 10.008958-6.460132 23.248494-3.485381 29.692253 6.507204 6.412037 10.025331 3.501754 23.344684-6.443759 29.755698-27.933189 17.972327-59.911508 27.453259-92.529393 27.453259-94.703919 0-171.70771-77.148078-171.70771-171.995259 0-94.863555 77.003791-172.043355 171.70771-172.043355s171.70771 77.1798 171.70771 172.043355C683.695942 566.624085 674.070724 576.233953 662.190139 576.233953L662.190139 576.233953z" p-id="7487" fill="#ffffff"></path></svg>