<?xml version="1.0" standalone="no"?><!DOCTYPE svg PUBLIC "-//W3C//DTD SVG 1.1//EN" "http://www.w3.org/Graphics/SVG/1.1/DTD/svg11.dtd"><svg t="1582040582952" class="icon" viewBox="0 0 1024 1024" version="1.1" xmlns="http://www.w3.org/2000/svg" p-id="5281" xmlns:xlink="http://www.w3.org/1999/xlink" width="200" height="200"><defs><style type="text/css"></style></defs><path d="M218.479967 742.613308c5.116531 2.670829 10.863419 4.089132 16.621563 4.089132 13.556761 0 25.841551-7.485485 32.091906-19.542078 41.529859-80.424704 139.813303-126.547161 250.387677-126.547161 113.15106 0 213.498512 46.788629 249.708202 125.141138 5.895267 12.716626 18.760273 20.934798 32.784684 20.934798 5.215792 0 10.281157-1.109264 15.146978-3.334955 18.029632-8.356318 25.928532-29.843702 17.59268-47.913243-47.790446-103.391788-174.470637-167.631882-315.231521-167.631882-137.282666 0-260.742513 62.068637-314.521347 166.218696C193.939037 711.691041 200.887286 733.497697 218.479967 742.613308L218.479967 742.613308zM160.860664 411.849022c23.848151 30.901801 54.079686 52.730968 101.603049 52.730968s77.493955-21.781072 101.495602-52.594869c12.519128-16.068977 10.29139-37.84698-8.523117-50.53086-6.632047-4.464685-14.440897-6.089695-22.588461-6.089695-12.274558 0-23.906479 4.799306-31.100322 14.065344-7.847735 10.083659-17.533328 22.337751-39.283702 22.337751-21.864984 0-31.473829-12.199856-39.206954-22.23849-7.226588-9.340739-18.890232-14.165628-31.205723-14.165628-8.146541 0-15.941064 1.612731-22.573111 6.108115C152.296615 373.145535 148.430564 395.749346 160.860664 411.849022L160.860664 411.849022zM670.498874 411.849022c23.843034 30.901801 54.072523 52.730968 101.597933 52.730968 47.517223 0 77.496002-21.781072 101.497649-52.594869 12.514012-16.068977 10.29139-37.84698-8.525164-50.53086-6.634094-4.464685-14.43885-6.089695-22.585391-6.089695-12.276604 0-23.904433 4.799306-31.100322 14.065344-7.847735 10.083659-17.533328 22.337751-39.285748 22.337751-21.8701 0-31.473829-12.199856-39.203884-22.23849-7.226588-9.340739-18.893302-14.165628-31.207769-14.165628-8.146541 0-15.939017 1.612731-22.573111 6.108115C661.924591 373.145535 658.065703 395.749346 670.498874 411.849022L670.498874 411.849022zM511.99693 0.89437c-282.272875 0-511.10256 228.826616-511.10256 511.10563 0 282.275945 228.829685 511.10563 511.10256 511.10563 282.277992 0 511.107677-228.829685 511.107677-511.10563C1023.104607 229.722008 794.275945 0.89437 511.99693 0.89437L511.99693 0.89437zM821.778322 821.775252c-82.745563 82.742493-192.758142 128.315434-309.780369 128.315434-117.015064 0-227.030713-45.572942-309.775252-128.315434-82.740446-82.742493-128.313388-192.761212-128.313388-309.775252 0-117.02018 45.572942-227.03583 128.313388-309.775252 82.745563-82.745563 192.761212-128.315434 309.775252-128.315434 117.022227 0 227.03583 45.569872 309.780369 128.315434 82.742493 82.740446 128.315434 192.756095 128.315434 309.775252C950.093756 629.015064 904.520815 739.03276 821.778322 821.775252L821.778322 821.775252zM821.778322 821.775252" fill="#cccccc" p-id="5282"></path></svg>