<?xml version="1.0" standalone="no"?><!DOCTYPE svg PUBLIC "-//W3C//DTD SVG 1.1//EN" "http://www.w3.org/Graphics/SVG/1.1/DTD/svg11.dtd"><svg t="1581517221179" class="icon" viewBox="0 0 1024 1024" version="1.1" xmlns="http://www.w3.org/2000/svg" p-id="2389" xmlns:xlink="http://www.w3.org/1999/xlink" width="200" height="200"><defs><style type="text/css"></style></defs><path d="M912.2 407.8v480.3c0 13.3-10.7 24-24 24H135.9c-13.3 0-24-10.7-24-24V135.9c0-13.3 10.7-24 24-24h641c13.3 0 24-10.7 24-24s-10.7-24-24-24h-689c-13.3 0-24 10.7-24 24v848.2c0 13.3 10.7 24 24 24h848.2c13.3 0 24-10.7 24-24V407.8c0-13.3-10.7-24-24-24-13.2 0-23.9 10.7-23.9 24z" p-id="2390" fill="#FF699C"></path><path d="M959.1 222.5l-530 530.6c-0.8 1.1-2.1 1.8-3.4 2.1l-57.5-0.1c-3.2 0.6-6.2-1.7-6.5-4.9V693c-0.1-1.4 0.3-2.8 1.1-3.9l531.7-528.8c1.9-2.5 5.6-3 8.1-1.1l55.3 55.5c2.5 1.8 3 5.3 1.2 7.8z" p-id="2391" fill="#FF699C"></path></svg>