<?xml version="1.0" standalone="no"?><!DOCTYPE svg PUBLIC "-//W3C//DTD SVG 1.1//EN" "http://www.w3.org/Graphics/SVG/1.1/DTD/svg11.dtd"><svg t="1581939698586" class="icon" viewBox="0 0 1024 1024" version="1.1" xmlns="http://www.w3.org/2000/svg" p-id="6646" xmlns:xlink="http://www.w3.org/1999/xlink" width="200" height="200"><defs><style type="text/css"></style></defs><path d="M758.2 965.81H189.66c-37.69 0-68.34-30.67-68.34-68.34V152.49c0-37.69 30.66-68.34 68.34-68.34h208.21c17.18 0 31.11 13.93 31.11 31.11s-13.94 31.11-31.11 31.11H189.66c-3.37 0-6.12 2.74-6.12 6.12v744.98a6.12 6.12 0 0 0 6.12 6.12H758.2c3.38 0 6.12-2.73 6.12-6.12V589.01c0-17.18 13.94-31.11 31.11-31.11 17.18 0 31.11 13.94 31.11 31.11v308.46c0.01 37.68-30.66 68.34-68.34 68.34z" p-id="6647" fill="#FF699C"></path><path d="M675.3 792.97H272.56c-17.19 0-31.11-13.94-31.11-31.11s13.93-31.11 31.11-31.11H675.3c17.18 0 31.11 13.94 31.11 31.11s-13.94 31.11-31.11 31.11z" p-id="6648" fill="#FF699C"></path><path d="M758.2 965.81H189.66c-37.69 0-68.34-30.67-68.34-68.34V152.49c0-37.69 30.66-68.34 68.34-68.34h208.21c17.18 0 31.11 13.93 31.11 31.11s-13.94 31.11-31.11 31.11H189.66c-3.37 0-6.12 2.74-6.12 6.12v744.98a6.12 6.12 0 0 0 6.12 6.12H758.2c3.38 0 6.12-2.73 6.12-6.12V589.01c0-17.18 13.94-31.11 31.11-31.11 17.18 0 31.11 13.94 31.11 31.11v308.46c0.01 37.68-30.66 68.34-68.34 68.34z" p-id="6649" fill="#FF699C"></path><path d="M675.3 792.97H272.56c-17.19 0-31.11-13.94-31.11-31.11s13.93-31.11 31.11-31.11H675.3c17.18 0 31.11 13.94 31.11 31.11s-13.94 31.11-31.11 31.11zM506.34 590.73H272.56c-17.19 0-31.11-13.94-31.11-31.11s13.93-31.11 31.11-31.11h233.78c17.18 0 31.11 13.94 31.11 31.11s-13.93 31.11-31.11 31.11zM385.78 378.78H272.56c-17.19 0-31.11-13.93-31.11-31.11 0-17.19 13.93-31.11 31.11-31.11h113.22c17.18 0 31.11 13.93 31.11 31.11s-13.93 31.11-31.11 31.11z" p-id="6650" fill="#FF699C"></path><path d="M803.66 370.64H690.45c-17.18 0-31.11-13.93-31.11-31.11 0-17.19 13.94-31.11 31.11-31.11h113.21c17.18 0 31.11 13.93 31.11 31.11 0 17.19-13.94 31.11-31.11 31.11z" fill="#FF699C" p-id="6651"></path><path d="M684.82 540.93c-131.52 0-238.53-107-238.53-238.52 0-131.53 107.01-238.53 238.53-238.53s238.53 107 238.53 238.53c0 131.51-107.01 238.52-238.53 238.52z m0-414.84c-97.21 0-176.31 79.09-176.31 176.31 0 97.21 79.1 176.3 176.31 176.3s176.31-79.09 176.31-176.3c-0.01-97.22-79.11-176.31-176.31-176.31z" p-id="6652" fill="#FF699C"></path><path d="M675.3 365.02c-17.18 0-31.11-13.93-31.11-31.11V220.7c0-17.19 13.94-31.11 31.11-31.11 17.18 0 31.11 13.93 31.11 31.11v113.21c0 17.19-13.94 31.11-31.11 31.11z" fill="#FF699C" p-id="6653"></path></svg>