<?xml version="1.0" standalone="no"?><!DOCTYPE svg PUBLIC "-//W3C//DTD SVG 1.1//EN" "http://www.w3.org/Graphics/SVG/1.1/DTD/svg11.dtd"><svg t="1582037862547" class="icon" viewBox="0 0 1024 1024" version="1.1" xmlns="http://www.w3.org/2000/svg" p-id="3298" xmlns:xlink="http://www.w3.org/1999/xlink" width="200" height="200"><defs><style type="text/css"></style></defs><path d="M512 64c-195.2 0-352 156.8-352 352 0 192 265.6 544 352 544s352-352 352-544c0-195.2-156.8-352-352-352z m0 816c-57.6 0-288-316.8-288-464 0-160 128-288 288-288s288 128 288 288c0 147.2-230.4 464-288 464z" fill="#3DAEFF" p-id="3299"></path><path d="M512 288c-70.4 0-128 57.6-128 128s57.6 128 128 128 128-57.6 128-128-57.6-128-128-128z m0 192c-35.2 0-64-28.8-64-64s28.8-64 64-64 64 28.8 64 64-28.8 64-64 64z" fill="#3DAEFF" p-id="3300"></path></svg>