<?xml version="1.0" standalone="no"?><!DOCTYPE svg PUBLIC "-//W3C//DTD SVG 1.1//EN" "http://www.w3.org/Graphics/SVG/1.1/DTD/svg11.dtd"><svg class="icon" width="200px" height="200.00px" viewBox="0 0 1024 1024" version="1.1" xmlns="http://www.w3.org/2000/svg"><path fill="#FF699C" d="M768 384H256c-70.4 0-128 57.6-128 128v320c0 70.4 57.6 128 128 128h512c70.4 0 128-57.6 128-128V512c0-70.4-57.6-128-128-128z m64 448c0 38.4-25.6 64-64 64H256c-38.4 0-64-25.6-64-64V512c0-38.4 25.6-64 64-64h512c38.4 0 64 25.6 64 64v320z"  /><path fill="#FF699C" d="M512 627.2m-64 0a64 64 0 1 0 128 0 64 64 0 1 0-128 0Z"  /><path fill="#FF699C" d="M512 780.8c-19.2 0-32-12.8-32-32v-128c0-19.2 12.8-32 32-32s32 12.8 32 32v128c0 19.2-12.8 32-32 32zM320 448V320c0-108.8 83.2-192 192-192s192 83.2 192 192v128h64V320c0-140.8-115.2-256-256-256S256 179.2 256 320v128h64z"  /></svg>