<?xml version="1.0" standalone="no"?><!DOCTYPE svg PUBLIC "-//W3C//DTD SVG 1.1//EN" "http://www.w3.org/Graphics/SVG/1.1/DTD/svg11.dtd"><svg t="1582736321076" class="icon" viewBox="0 0 1024 1024" version="1.1" xmlns="http://www.w3.org/2000/svg" p-id="9127" xmlns:xlink="http://www.w3.org/1999/xlink" width="200" height="200"><defs><style type="text/css"></style></defs><path d="M341.8624 153.6C346.0608 119.9232 374.784 93.866667 409.6 93.866667h204.8c34.816 0 63.5392 26.056533 67.7376 59.733333H827.733333c37.704533 0 68.266667 30.562133 68.266667 68.266667v640c0 37.704533-30.562133 68.266667-68.266667 68.266666H196.266667c-37.704533 0-68.266667-30.562133-68.266667-68.266666V221.866667c0-37.704533 30.562133-68.266667 68.266667-68.266667h145.595733z m0 51.2H196.266667a17.066667 17.066667 0 0 0-17.066667 17.066667v640a17.066667 17.066667 0 0 0 17.066667 17.066666h631.466666a17.066667 17.066667 0 0 0 17.066667-17.066666V221.866667a17.066667 17.066667 0 0 0-17.066667-17.066667h-145.595733c-4.1984 33.6768-32.925867 59.733333-67.7376 59.733333H409.6c-34.816 0-63.5392-26.056533-67.7376-59.733333zM409.6 145.066667a17.066667 17.066667 0 0 0-17.066667 17.066666v34.133334a17.066667 17.066667 0 0 0 17.066667 17.066666h204.8a17.066667 17.066667 0 0 0 17.066667-17.066666v-34.133334a17.066667 17.066667 0 0 0-17.066667-17.066666H409.6z m52.8896 463.095466l186.794667-186.794666a25.6 25.6 0 1 1 36.206933 36.202666l-201.847467 201.8432a25.770667 25.770667 0 0 1-2.794666 3.310934 25.514667 25.514667 0 0 1-8.546134 5.653333 24.9472 24.9472 0 0 1-28.16-5.661867 26.5088 26.5088 0 0 1-2.3424-2.833066l-105.770666-105.770667a25.6 25.6 0 1 1 36.202666-36.202667l90.257067 90.2528z" p-id="9128" fill="#FF699C"></path></svg>