<?xml version="1.0" standalone="no"?><!DOCTYPE svg PUBLIC "-//W3C//DTD SVG 1.1//EN" "http://www.w3.org/Graphics/SVG/1.1/DTD/svg11.dtd"><svg t="1583488317578" class="icon" viewBox="0 0 1024 1024" version="1.1" xmlns="http://www.w3.org/2000/svg" p-id="2392" xmlns:xlink="http://www.w3.org/1999/xlink" width="200" height="200"><defs><style type="text/css"></style></defs><path d="M843 269.5C748.6 100.3 523.8 45.9 341 148 158.2 250 86.6 469.9 181 639c20.1 35.9 46 66.6 76.2 91.8 2.7 67.6 10.1 189.4 27.4 196.3 15.4 6.2 106.2-64.9 169.2-116.7 75.7 6.7 155.8-9 229.2-49.9 182.8-102 254.4-321.8 160-491zM648.4 705.3c-59.6 33.3-124.7 46-186.2 40.6-51.2 42-124.9 99.8-137.5 94.8-14.1-5.6-20.1-104.6-22.3-159.5-24.5-20.4-45.6-45.4-61.9-74.6-76.7-137.5-18.5-316.1 130-399 148.5-82.9 331.1-38.7 407.8 98.8 76.8 137.3 18.6 316-129.9 398.9z" fill="#03a9f4" p-id="2393"></path><path d="M596.3 508.3c-15.3 0.9-35.2 55.1-46.5 53.9C538.4 561 416.9 434.9 417.5 425c0.6-9.8 48.1-34.3 46.5-49-1.5-14.7-49-79-71-78.4-8.6 0.3-58.8 60.4-48.7 113.3 15.7 82.4 105.5 175.2 171.2 212.5 107.8 61.2 167.8-25.1 164.1-36.7-3.7-11.6-68-79.3-83.3-78.4z" fill="#03a9f4" p-id="2394"></path></svg>