<?xml version="1.0" standalone="no"?><!DOCTYPE svg PUBLIC "-//W3C//DTD SVG 1.1//EN" "http://www.w3.org/Graphics/SVG/1.1/DTD/svg11.dtd"><svg t="1577971706745" class="icon" viewBox="0 0 1024 1024" version="1.1" xmlns="http://www.w3.org/2000/svg" p-id="4311" xmlns:xlink="http://www.w3.org/1999/xlink" width="200" height="200"><defs><style type="text/css"></style></defs><path d="M516.042105 980.884211l-24.252631-27.216843c-12.099368-15.117474-308.601263-353.980632-308.601263-529.461894a332.8 332.8 0 0 1 665.6 0c0 175.481263-296.421053 514.317474-308.601264 529.461894z m0-825.936843a271.171368 271.171368 0 0 0-272.168421 272.168421c0 118.002526 178.499368 353.980632 272.168421 462.901895 93.776842-108.921263 272.168421-344.926316 272.168421-462.901895a273.084632 273.084632 0 0 0-272.168421-272.168421z" fill="#1cb1f5" p-id="4312"></path><path d="M516.042105 593.596632a160.336842 160.336842 0 1 1 160.336842-160.336843 161.414737 161.414737 0 0 1-160.336842 160.336843z m0-260.176843a99.84 99.84 0 1 0 99.705263 99.84 100.729263 100.729263 0 0 0-99.705263-99.84z" fill="#1cb1f5" p-id="4313"></path></svg>