<?xml version="1.0" standalone="no"?><!DOCTYPE svg PUBLIC "-//W3C//DTD SVG 1.1//EN" "http://www.w3.org/Graphics/SVG/1.1/DTD/svg11.dtd"><svg t="1582044572999" class="icon" viewBox="0 0 1024 1024" version="1.1" xmlns="http://www.w3.org/2000/svg" p-id="6107" xmlns:xlink="http://www.w3.org/1999/xlink" width="200" height="200"><defs><style type="text/css"></style></defs><path d="M625.52062988 410.65112281c9.2845459 0 17.23425293 3.29754663 23.85900856 9.88769578 6.56048608 6.59014916 9.87780761 14.52502465 9.87780761 23.7947383 0 9.26477027-3.36181617 17.30346656-10.0360105 23.99743653L506.21569824 611.28729272c-6.44677711 6.49127173-14.35693359 9.78881836-23.70080566 9.78881836-9.48724342 0-17.46661353-3.29754663-23.94799781-9.78881836l-71.63635254-71.37432885c-6.46655273-6.49127173-9.73937964-14.42120385-9.73938035-23.99743653 0-9.26971435 3.31237817-17.20458984 9.87286424-23.794739 6.63464379-6.59014916 14.55468773-9.88769508 23.85406446-9.88769508 9.31420898 0 17.29357911 3.29754663 23.96777344 9.99151588l47.67352319 47.68835473L601.57263208 420.63769531c6.67419434-6.69396997 14.66839599-10.09533667 23.9727168-10.09533667l-0.024719 0.1038208zM512.00494408 208.67517066c-41.07842993 0-80.39190697 8.0337522-117.85144042 24.10125732-37.44470191 15.96368432-69.70330787 37.59301734-96.74121142 64.57653809-27.05767846 27.09228492-48.61779785 59.32617188-64.65563917 96.8203125-16.06750512 37.38537574-24.07653833 76.72851586-24.10125732 117.82672143-0.04943872 40.99438477 8.01397729 80.33752417 24.10125732 117.82672143 16.05761695 37.49414063 37.62268042 69.73297095 64.65563917 96.8203125 26.9934082 26.98352075 59.25695825 48.50903297 96.74121142 64.57653809 37.50897217 16.06750512 76.79772949 24.10125732 117.85144042 24.10125732 41.04382348 0 80.3325808-8.0337522 117.84155226-24.10125732 37.50402808-16.06750512 69.74285913-37.59301734 96.74121142-64.57653809 27.04779029-27.09228492 48.59802222-59.32617188 64.68530225-96.8203125 16.05761695-37.48919654 24.12597633-76.83233666 24.07159424-117.82672143-0.01977563-41.09820557-8.0337522-80.43640161-24.07653761-117.82672143-16.06750512-37.49414063-37.62268042-69.73297095-64.68035888-96.8203125-27.0181272-26.98352075-59.29650879-48.61285376-96.74121142-64.57653809-37.45953345-16.06750512-76.77795386-24.10125732-117.84155226-24.10125732z m0-67.46374488c50.39758301 0 98.45672632 9.78881836 144.18237257 29.35656762 45.71081543 19.56774926 85.13305664 45.93328857 118.22222901 78.99774122 33.11389136 33.05950928 59.44482422 72.50646949 79.01257348 118.23706055C872.99975586 413.53338623 882.78857422 461.63702416 882.78857422 512c0 50.36791992-9.78881836 98.36279297-29.36645508 144.19720483-19.56774926 45.62677026-45.89868141 85.07373047-79.01257348 118.13323974-33.09411645 33.16827416-72.51141357 59.53381347-118.22222901 79.00268532C610.46166969 872.90087914 562.4025271 882.78857422 512 882.78857422c-50.38769555 0-98.46661377-9.88769508-144.19226074-29.45544434-45.71081543-19.46887183-85.13305664-45.83441186-118.222229-79.0026853-33.11389136-33.05950928-59.44482422-72.50646949-79.01257349-118.13323975C151.00024414 610.36279297 141.21142578 562.36297584 141.21142578 512c0-50.36791992 9.78881836-98.46661377 29.36645508-144.19720483 19.56774926-45.73059106 45.89868141-85.17755127 79.01257348-118.23706055 33.09411645-33.06445336 72.51141357-59.42999268 118.22222901-79.0026853C413.53833031 151.00024414 461.62219262 141.21142578 512.00494408 141.21142578z" p-id="6108" fill="#1afa29"></path></svg>