<?xml version="1.0" standalone="no"?><!DOCTYPE svg PUBLIC "-//W3C//DTD SVG 1.1//EN" "http://www.w3.org/Graphics/SVG/1.1/DTD/svg11.dtd"><svg t="1582302407680" class="icon" viewBox="0 0 1080 1024" version="1.1" xmlns="http://www.w3.org/2000/svg" p-id="2395" xmlns:xlink="http://www.w3.org/1999/xlink" width="210.9375" height="200"><defs><style type="text/css"></style></defs><path d="M600.91018 441.48503c55.185629-24.526946 110.371257-49.053892 159.425149-73.580838 49.053892-24.526946 91.976048-42.922156 116.502994-55.185629 30.658683-12.263473 55.185629-18.39521 73.580839-18.39521 30.658683 0 55.185629 12.263473 79.712575 30.658683s30.658683 42.922156 30.658682 73.580838c0 18.39521-6.131737 36.790419-18.395209 55.185629-12.263473 18.39521-24.526946 30.658683-30.658683 36.790419-110.371257 42.922156-226.874251 73.580838-361.772455 91.976048 24.526946 24.526946 55.185629 49.053892 85.844311 85.844311 36.790419 36.790419 55.185629 55.185629 55.185629 61.317366 12.263473 18.39521 30.658683 36.790419 55.185629 67.449102 24.526946 24.526946 36.790419 49.053892 49.053892 61.317365 6.131737 12.263473 12.263473 30.658683 12.263473 55.185629s-12.263473 49.053892-30.658683 73.580838c-18.39521 18.39521-49.053892 30.658683-79.712574 30.658682s-67.449102-24.526946-110.371258-73.580838c-42.922156-49.053892-91.976048-141.02994-153.293413-269.796407-61.317365 116.502994-110.371257 196.215569-128.766467 233.005988-24.526946 36.790419-42.922156 67.449102-61.317365 85.844311-18.39521 18.39521-42.922156 30.658683-67.449102 30.658683-30.658683 0-55.185629-12.263473-79.712575-30.658683-18.39521-24.526946-30.658683-42.922156-30.658683-67.449101 0-24.526946 6.131737-42.922156 12.263473-49.053893 79.712575-104.239521 159.42515-196.215569 245.269461-275.928143-79.712575-36.790419-147.161677-49.053892-202.347305-61.317366-55.185629-12.263473-116.502994-30.658683-177.820359-61.317365-6.131737-6.131737-18.39521-18.39521-30.658683-36.790419C6.131737 429.221557 0 410.826347 0 392.431138c0-30.658683 12.263473-55.185629 30.658683-73.580839 24.526946-18.39521 49.053892-30.658683 73.580838-30.658682 24.526946 0 49.053892 6.131737 79.712575 18.395209 30.658683 12.263473 67.449102 30.658683 116.502994 55.185629l159.42515 79.712575c-12.263473-55.185629-18.39521-116.502994-24.526947-183.952096-12.263473-67.449102-12.263473-116.502994-12.263473-141.02994 0-30.658683 12.263473-55.185629 30.658683-79.712575S496.670659 0 527.329341 0s55.185629 12.263473 73.580839 30.658683c18.39521 24.526946 30.658683 55.185629 30.658682 91.976048 0 12.263473 0 30.658683-6.131736 61.317365 0 30.658683-6.131737 67.449102-12.263473 110.371257 0 42.922156-6.131737 91.976048-12.263473 147.161677z" p-id="2396" fill="#FF699C"></path></svg>